<?xml version="1.0" encoding="UTF-8"?>
<svg width="25px" height="28px" viewBox="0 0 25 28" version="1.1" xmlns="http://www.w3.org/2000/svg" xmlns:xlink="http://www.w3.org/1999/xlink">
    <!-- Generator: Sketch 51.1 (57501) - http://www.bohemiancoding.com/sketch -->
    <title>Icon/Contact</title>
    <desc>Created with Sketch.</desc>
    <defs></defs>
    <g id="Date-picker" stroke="none" stroke-width="1" fill="none" fill-rule="evenodd">
        <g id="Array_GlobalFramework_default" transform="translate(-1316.000000, -20.000000)" fill="#000000">
            <g id="Icon/Contact" transform="translate(1316.000000, 20.000000)">
                <g id="Group-6">
                    <path d="M12.2840779,20.6354224 C12.0657895,20.6350824 11.8560613,20.7245059 11.7013168,20.8836321 L7.68454514,25.0283946 L7.68454514,21.4854557 C7.68454514,21.0162373 7.31612158,20.6354224 6.86143619,20.6354224 L4.03323385,20.6354224 C2.72251516,20.6429027 1.6537905,19.5514599 1.6462179,18.1975268 L1.6462179,18.1907265 L1.6462179,4.15157621 C1.6462179,2.79764313 2.70901617,1.70008011 4.0200641,1.70008011 L4.03323385,1.70008011 L20.8246564,1.70008011 C22.1360336,1.70008011 23.1985026,2.79764313 23.1985026,4.15157621 L23.1985026,18.1907265 C23.1952102,19.5419395 22.1333996,20.6354224 20.8246564,20.6354224 L12.2840779,20.6354224 Z M20.8246564,22.335489 C23.0417827,22.3337889 24.8394526,20.4800363 24.8447205,18.1907265 L24.8447205,4.14817607 C24.8414281,1.85750628 23.0430996,0.00171353277 20.8246564,1.34661298e-05 L4.03323385,1.34661298e-05 C1.81116893,-0.00576676045 0.00559714085,1.85002599 0,4.14477594 L0,4.15157621 L0,18.1907265 C0.00559714085,20.4854765 1.81116893,22.3412692 4.03323385,22.335489 L6.05149699,22.335489 L6.05149699,27.0956756 C6.0508385,27.564894 6.41893282,27.946389 6.87328896,27.947069 C7.09223594,27.947409 7.30262259,27.8579855 7.45769632,27.6974992 L12.6264913,22.335489 L20.8246564,22.335489 Z" id="Fill-1"></path>
                    <path d="M12.8350282,6 C10.7089156,6 9.20329231,7.28935108 9,9.28480376 L10.7308036,9.42495061 C10.7885081,8.86078497 11.1088676,7.54847367 12.8350282,7.54847367 C13.5281456,7.54847367 14.0365422,7.69756607 14.3479475,7.99187446 C14.7343024,8.35655447 14.7827212,8.90938909 14.7561903,9.30865854 C14.7084349,10.0111819 14.2680235,10.3254687 13.4946504,10.8216482 C12.7172978,11.3205114 11.7485917,11.9413321 11.7485917,13.2256141 L11.7485917,14 L13.4866912,14 L13.4866912,13.2256141 C13.4866912,12.7771441 13.7675861,12.5544001 14.5104487,12.0784971 C15.3040515,11.5688993 16.3918146,10.8720414 16.4906419,9.40139401 C16.5586271,8.39203847 16.255181,7.53744083 15.6131354,6.93033658 C15.1644331,6.50572142 14.3187637,6 12.8350282,6 Z M11.5714547,17 L13.7143119,17 L13.7143119,15 L11.5714547,15 L11.5714547,17 Z" id="Fill-4"></path>
                </g>
            </g>
        </g>
    </g>
</svg>