<svg id="Layer_1" data-name="Layer 1" xmlns="http://www.w3.org/2000/svg" viewBox="0 0 1920 1017"><defs><style>.cls-1{fill:#a5a5a5;}</style></defs><title>sheet placeholder</title><rect class="cls-1" x="-1" y="985.25" width="1922" height="0.5"/><rect class="cls-1" x="-1" y="951.25" width="1922" height="0.5"/><rect class="cls-1" x="-1" y="917.25" width="1922" height="0.5"/><rect class="cls-1" x="-1" y="883.25" width="1922" height="0.5"/><rect class="cls-1" x="-1" y="849.25" width="1922" height="0.5"/><rect class="cls-1" x="-1" y="815.25" width="1922" height="0.5"/><rect class="cls-1" x="-1" y="781.25" width="1922" height="0.5"/><rect class="cls-1" x="-1" y="747.25" width="1922" height="0.5"/><rect class="cls-1" x="-1" y="713.25" width="1922" height="0.5"/><rect class="cls-1" x="-1" y="679.25" width="1922" height="0.5"/><rect class="cls-1" x="-1" y="645.25" width="1922" height="0.5"/><rect class="cls-1" x="-1" y="611.25" width="1922" height="0.5"/><rect class="cls-1" x="-1" y="577.25" width="1922" height="0.5"/><rect class="cls-1" x="-1" y="543.25" width="1922" height="0.5"/><rect class="cls-1" x="-1" y="509.25" width="1922" height="0.5"/><rect class="cls-1" x="-1" y="475.25" width="1922" height="0.5"/><rect class="cls-1" x="-1" y="441.25" width="1922" height="0.5"/><rect class="cls-1" x="-1" y="407.25" width="1922" height="0.5"/><rect class="cls-1" x="-1" y="373.25" width="1922" height="0.5"/><rect class="cls-1" x="-1" y="339.25" width="1922" height="0.5"/><rect class="cls-1" x="-1" y="305.25" width="1922" height="0.5"/><rect class="cls-1" x="-1" y="271.25" width="1922" height="0.5"/><rect class="cls-1" x="-1" y="237.25" width="1922" height="0.5"/><rect class="cls-1" x="-1" y="203.25" width="1922" height="0.5"/><rect class="cls-1" x="-1" y="169.25" width="1922" height="0.5"/><rect class="cls-1" x="-1" y="135.25" width="1922" height="0.5"/><rect class="cls-1" x="-1" y="101.25" width="1922" height="0.5"/><rect class="cls-1" x="-1" y="67.25" width="1922" height="0.5"/><rect class="cls-1" x="-1" y="33.25" width="1922" height="0.5"/><rect class="cls-1" x="1831.25" width="0.5" height="1019"/><rect class="cls-1" x="1717.25" width="0.5" height="1019"/><rect class="cls-1" x="1603.25" width="0.5" height="1019"/><rect class="cls-1" x="1489.25" width="0.5" height="1019"/><rect class="cls-1" x="1375.25" width="0.5" height="1019"/><rect class="cls-1" x="1261.25" width="0.5" height="1019"/><rect class="cls-1" x="1147.25" width="0.5" height="1019"/><rect class="cls-1" x="1033.25" width="0.5" height="1019"/><rect class="cls-1" x="919.25" width="0.5" height="1019"/><rect class="cls-1" x="805.25" width="0.5" height="1019"/><rect class="cls-1" x="691.25" width="0.5" height="1019"/><rect class="cls-1" x="577.25" width="0.5" height="1019"/><rect class="cls-1" x="463.25" width="0.5" height="1019"/><rect class="cls-1" x="349.25" width="0.5" height="1019"/><rect class="cls-1" x="235.25" width="0.5" height="1019"/><rect class="cls-1" x="121.25" width="0.5" height="1019"/></svg>